<svg width="320" height="80" viewBox="0 0 320 80" fill="none" xmlns="http://www.w3.org/2000/svg">
  <defs>
    <linearGradient id="brandRed" x1="12" y1="12" x2="72" y2="68" gradientUnits="userSpaceOnUse">
      <stop stop-color="#FF5A5F"/>
      <stop offset="1" stop-color="#C61D22"/>
    </linearGradient>
    <linearGradient id="shoe" x1="92" y1="18" x2="144" y2="62" gradientUnits="userSpaceOnUse">
      <stop stop-color="#15120F"/>
      <stop offset="1" stop-color="#3A322D"/>
    </linearGradient>
  </defs>
  <rect x="8" y="10" width="64" height="60" rx="20" fill="url(#brandRed)"/>
  <path d="M22 45c6-8 12-12 21-16 5-2 10-5 14-10 1-1 4 0 4 2v5c0 3-2 6-4 8l-7 6h9c6 0 11 2 15 6l3 3c2 2 2 6 0 8H25c-5 0-8-5-3-12Z" fill="white" opacity="0.95"/>
  <path d="M23 52h34" stroke="#fff" stroke-width="3" stroke-linecap="round" opacity="0.95"/>
  <path d="M20 56h42" stroke="#fff" stroke-width="2" stroke-linecap="round" opacity="0.6"/>
  <circle cx="29" cy="32" r="2" fill="#fff" opacity="0.95"/>
  <circle cx="36" cy="29" r="2" fill="#fff" opacity="0.95"/>
  <circle cx="43" cy="25" r="2" fill="#fff" opacity="0.95"/>

  <path d="M96 20h18c7 0 12 5 12 11s-5 11-12 11H96V20Z" fill="#15120F"/>
  <path d="M120 20h6c10 0 18 7 18 16v6c0 9-8 16-18 16h-6V20Z" fill="#15120F"/>
  <path d="M148 20h18c8 0 14 6 14 13s-6 13-14 13h-11v13h-7V20Z" fill="#15120F"/>
  <path d="M168 40l9 0c3 0 5-2 5-4s-2-4-5-4h-9v8Z" fill="#fff" opacity="0.95"/>

  <path d="M96 60c11 0 20-4 29-11 6-5 12-8 18-9 1 0 3 1 3 3v2c0 3-2 5-4 6-10 6-20 10-32 10h-14v-1Z" fill="url(#shoe)"/>
  <path d="M100 56c8-1 15-4 22-9 5-4 9-6 13-7" stroke="#FFF7F2" stroke-opacity="0.55" stroke-width="2" stroke-linecap="round"/>

  <text x="214" y="37" fill="#15120F" font-size="26" font-family="Arial, Helvetica, sans-serif" font-weight="800" letter-spacing="-0.5">sneaker</text>
  <text x="214" y="56" fill="#6F645D" font-size="11" font-family="Arial, Helvetica, sans-serif" font-weight="700" letter-spacing="3">PREMIUM STORE</text>
</svg>
